g Bottle Melon PreviewMesh
v 0.02751871 0.1312125 -0.01556471
v 0.02635318 0.004243392 -0.01785984
v -0.01556471 0.1312125 -0.02751871
v -0.01785983 0.004243393 -0.02635319
v -0.01556471 0.1312125 -0.02751871
v -0.01785983 0.004243393 -0.02635319
v -0.02751872 0.1312125 0.01556471
v -0.02635319 0.004243393 0.01785982
v -0.02751872 0.1312125 0.01556471
v -0.02635319 0.004243393 0.01785982
v 0.01748934 0.1526782 0.02300723
v 0.01785982 0.004243393 0.02635319
v 0.01748934 0.1526782 0.02300723
v 0.01785982 0.004243393 0.02635319
v 0.02751871 0.1312125 -0.01556471
v 0.02635318 0.004243392 -0.01785984
v 0.01748934 0.1526782 0.02300723
v 0.01571417 0.1591716 2.183721E-09
v 0.01748934 0.1526782 0.02300723
v -0.02751872 0.1312125 0.01556471
v 0.005732986 0.2330426 0.009365785
v 0.01234716 0.1575579 0.01345911
v -0.003981933 0.2253425 0.00469531
v -0.02751872 0.1312125 0.01556471
v 0.005732986 0.2330426 0.009365785
v -0.01556471 0.1312125 -0.02751871
v -0.01266954 0.2351632 -0.0003654584
v -0.01558933 0.16788 0.008062032
v -0.01556471 0.1312125 -0.02751871
v -0.01556471 0.1312125 -0.02751871
v -0.005590571 0.1827507 0.004507385
v -0.01266954 0.2351632 -0.0003654584
v 0.02751871 0.1312125 -0.01556471
v 0.005732986 0.2330426 0.009365785
v -0.0009140165 0.1519437 -0.01979662
v 0.02751871 0.1312125 -0.01556471
v 0.003943624 0.2255814 -0.01236642
v 0.01578242 0.1569493 -0.008585194
v 0.02751871 0.1312125 -0.01556471
v 0.01748934 0.1526782 0.02300723
v 0.001917364 0.1822394 -0.007005933
v 0.01571417 0.1591716 2.183721E-09
v 0.005732986 0.2330426 0.009365785
v 0.005732986 0.2330426 0.009365785
v 0.003861569 0.2347119 -0.008311979
v -0.01266954 0.2351632 -0.0003654584
v 0.01763106 -0.0006613609 0.02077542
v 0.01785982 0.004243393 0.02635319
v 0.02635318 0.004243392 -0.01785984
v 0.01785982 0.004243393 0.02635319
v -0.02635319 0.004243393 0.01785982
v 0.01466621 -0.0003710382 -0.02164083
v 0.02635318 0.004243392 -0.01785984
v -0.01785983 0.004243393 -0.02635319
v -0.02635319 0.004243393 0.01785982
v -0.01785983 0.004243393 -0.02635319
v -0.02033083 -0.0001322754 -0.003646546
v 0.005732986 0.2330426 0.009365785
v -0.01266954 0.2351632 -0.0003654584
v 0.004297429 0.233057 -0.005160461
v -0.01266954 0.2351632 -0.0003654584
v 0.005732986 0.2330426 0.009365785
v 0.003861569 0.2347119 -0.008311979
v 0.003861569 0.2347119 -0.008311979
vt 0.3490694 0.4948546
vt 0.3241437 0.01138338
vt 0.4418574 0.499339
vt 0.4113467 0.01219945
vt 0.5359012 0.4948546
vt 0.5109755 0.01138338
vt 0.6286892 0.4993391
vt 0.5981785 0.01219945
vt 0.722733 0.4948546
vt 0.6978072 0.01138338
vt 0.8155209 0.4993391
vt 0.7850102 0.01219945
vt 0.909565 0.4948546
vt 0.8846391 0.01138338
vt 0.9718421 0.4948546
vt 0.9718421 0.01219945
vt 0.8068363 0.6241444
vt 0.7650788 0.7002623
vt 0.7116306 0.5219809
vt 0.6170995 0.5123588
vt 0.683238 0.9380539
vt 0.7271985 0.6584423
vt 0.5966135 0.9125233
vt 0.5438002 0.5024669
vt 0.5601941 0.9397242
vt 0.4517765 0.5205442
vt 0.5396744 0.9417058
vt 0.6315275 0.6683932
vt 0.4323059 0.5170497
vt 0.3771455 0.5332335
vt 0.6106789 0.7415872
vt 0.5055331 0.9507187
vt 0.2922773 0.585121
vt 0.4843731 0.9615119
vt 0.4227409 0.6309125
vt 0.2718599 0.5899662
vt 0.4836818 0.9244773
vt 0.3527119 0.6885448
vt 0.2271783 0.6326885
vt 0.2828224 0.6817679
vt 0.4379036 0.7650221
vt 0.3360997 0.7149147
vt 0.4346591 0.9463012
vt 0.1402008 0.0802523
vt 0.1230555 0.08930557
vt 0.1230555 0.0848464
vt 0.844561 0.6924332
vt 0.7985902 0.6957508
vt 0.7650785 0.746322
vt 0.9134497 0.672447
vt 0.964021 0.7059585
vt 0.7967862 0.840581
vt 0.7883825 0.8611814
vt 0.8389536 0.894693
vt 0.9873245 0.8208178
vt 0.9538128 0.8713891
vt 0.9410801 0.8224163
vt 0.1044054 0.08285217
vt 0.1235098 0.08817883
vt 0.1352644 0.06161646
vt 0.1568588 0.06879739
vt 0.09035045 0.03039954
vt 0.1044053 0.01634411
vt 0.16199 0.04949931
vn 0.2673311 0.01496225 -0.9634885
vn 0.2280563 0.001223187 -0.9736471
vn 0.2280563 0.001223187 -0.9736471
vn 0.1886369 -0.01242386 -0.9819683
vn -0.9634885 0.01496218 -0.2673312
vn -0.9736471 0.001223138 -0.2280566
vn -0.9736471 0.001223138 -0.2280566
vn -0.9819682 -0.01242389 -0.1886372
vn -0.170658 0.01624196 0.9851965
vn -0.1802567 0.01913822 0.9834334
vn -0.1802567 0.01913822 0.9834334
vn -0.1886075 0.02166092 0.9818137
vn 0.9688624 0.007996594 0.2474708
vn 0.9757598 -0.001981859 0.2188354
vn 0.9757598 -0.001981859 0.2188354
vn 0.9819683 -0.01242392 0.188637
vn 0.4340571 0.8752158 0.2135222
vn 0.5251463 0.1656056 0.8347432
vn -0.2178651 0.4007967 0.8898858
vn -0.2852614 0.2803423 0.9165337
vn -0.3205763 -0.1616476 0.9333279
vn 0.3048568 0.3888358 0.8694072
vn -0.9002821 0.04882517 0.4325601
vn -0.9328644 0.2505367 -0.2588342
vn -0.4627272 0.04685141 0.8852619
vn -0.9328644 0.2505367 -0.2588342
vn -0.7857555 -0.5622784 0.2577427
vn -0.8120053 0.5554386 0.1792634
vn -0.5187297 0.5951927 -0.6137306
vn 0.2635801 0.1675797 -0.9499697
vn -0.9205024 0.2054155 0.3323849
vn 0.2795137 0.9008092 -0.3322875
vn 0.2635801 0.1675797 -0.9499697
vn 0.2795137 0.9008092 -0.3322875
vn -0.3977039 0.3414646 -0.8516065
vn 0.4200815 0.410979 -0.8090908
vn 0.3757871 0.2452475 -0.8936653
vn 0.8450975 0.2712436 -0.4606921
vn 0.9105263 0.4133967 0.00669294
vn 0.9217717 0.3877242 0.002614627
vn 0.5468028 0.0482701 -0.8358688
vn 0.9897488 0.1399738 -0.02836422
vn 0.9823771 0.1545408 -0.1051307
vn -0.06874438 -0.993871 -0.08657243
vn -0.06874438 -0.993871 -0.08657243
vn -0.06874438 -0.993871 -0.08657243
vn 0.07181219 -0.9903008 0.1189423
vn 0.9503656 -0.2519425 0.1825661
vn 0.606326 -0.7943995 0.03603224
vn -0.1263969 -0.7423599 0.6579707
vn -0.1252631 -0.9464647 0.2975125
vn 0.04990792 -0.9888231 -0.1404924
vn 0.1793149 0.3106966 -0.9334419
vn -0.05826912 -0.8841393 -0.4635757
vn -0.9040023 -0.3906687 -0.1736598
vn -0.9040023 -0.3906687 -0.1736598
vn -0.1223642 -0.9924228 -0.01113498
vn 0.1201487 0.9926961 -0.01089306
vn 0.1201487 0.9926961 -0.01089306
vn 0.06874438 0.9938709 0.08657243
vn 0.2293563 0.8744494 0.427474
vn -0.9923759 -0.07474305 0.09799775
vn -0.9923759 -0.07474305 0.09799775
vn 0.2293563 0.8744494 0.427474
g Bottle Melon PreviewMesh_0
f 1/1/1 2/2/2 3/3/3
f 4/4/4 3/3/3 2/2/2
f 5/5/5 6/6/6 7/7/7
f 8/8/8 7/7/7 6/6/6
f 9/9/9 10/10/10 11/11/11
f 12/12/12 11/11/11 10/10/10
f 13/13/13 14/14/14 15/15/15
f 16/16/16 15/15/15 14/14/14
f 17/17/17 18/18/18 22/22/22
f 28/28/28 19/19/19 22/22/22
f 19/19/19 28/28/28 20/20/20
f 22/22/22 18/18/18 23/23/23
f 21/21/21 23/23/23 18/18/18
f 31/31/31 28/28/28 22/22/22
f 31/31/31 22/22/22 23/23/23
f 24/24/24 28/28/28 26/26/26
f 27/27/27 23/23/23 25/25/25
f 23/23/23 27/27/27 37/37/37
f 35/35/35 29/29/29 28/28/28
f 28/28/28 31/31/31 35/35/35
f 30/30/30 35/35/35 33/33/33
f 35/35/35 31/31/31 23/23/23
f 23/23/23 37/37/37 35/35/35
f 34/34/34 37/37/37 32/32/32
f 41/41/41 35/35/35 37/37/37
f 38/38/38 36/36/36 35/35/35
f 40/40/40 39/39/39 38/38/38
f 35/35/35 41/41/41 38/38/38
f 38/38/38 41/41/41 37/37/37
f 42/42/42 40/40/40 38/38/38
f 42/42/42 38/38/38 43/43/43
f 37/37/37 43/43/43 38/38/38
f 46/46/46 45/45/45 44/44/44
f 49/49/49 48/48/48 47/47/47
f 50/50/50 51/51/51 47/47/47
f 57/57/57 47/47/47 51/51/51
f 47/47/47 52/52/52 49/49/49
f 52/52/52 47/47/47 57/57/57
f 54/54/54 53/53/53 52/52/52
f 52/52/52 57/57/57 54/54/54
f 55/55/55 56/56/56 57/57/57
f 59/59/59 58/58/58 60/60/60
f 62/62/62 63/63/63 60/60/60
f 64/64/64 61/61/61 60/60/60
